# xmcd CD database file
#
# Track frame offsets:
#	150
#	18939
#	34285
#	49553
#	67767
#	85359
#	100348
#	119144
#	135878
#	152585
#
# Disc length: 2286 seconds
#
# Revision: 0
# Processed by: cddbd v1.5.2PL0 Copyright (c) Steve Scherf et al.
# Submitted via: CDex 1.51
#
DISCID=7808ec0a
DTITLE=Jessica Campbell - The Anchor and The Sail
DYEAR=2013
DGENRE=Country
TTITLE0=Time
TTITLE1=My Patchwork Heart
TTITLE2=Gone
TTITLE3=The Anchor and The Sail
TTITLE4=Sunnyside
TTITLE5=Mississippi
TTITLE6=Something About Trains
TTITLE7=Be You
TTITLE8=Don't Call Me
TTITLE9=Doors
EXTD=YEAR: 2013
EXTT0=
EXTT1=
EXTT2=
EXTT3=
EXTT4=
EXTT5=
EXTT6=
EXTT7=
EXTT8=
EXTT9=
PLAYORDER=
